<!-- 从 Xiaomi MiMo 官方字标裁出首个 M，保留左竖笔与斜笔之间的品牌断口。 -->
<svg xmlns="http://www.w3.org/2000/svg" viewBox="0 0 32 32" role="img" aria-label="Xiaomi MiMo">
  <rect width="32" height="32" rx="7" fill="#0b0d0f"/>
  <g transform="translate(-85.55 3.82)" fill="#f5f6f6">
    <path d="M109.72 2.376a1.58 1.58 0 0 1 1.914 1.557v16.47a1.59 1.59 0 0 1-3.177 0V7.847l-5.769 5.966a1.596 1.596 0 0 1-2.268.057 1.593 1.593 0 0 1-.228-.285L91.914 5.04a1.593 1.593 0 0 1 2.278-2.214l7.354 7.58 7.362-7.58c.219-.228.502-.385.812-.45Z"/>
    <path d="M93.056 9.426a1.592 1.592 0 0 1 1.59 1.529v9.449a1.6 1.6 0 0 1-.469 1.125 1.59 1.59 0 0 1-2.708-1.125v-9.45a1.592 1.592 0 0 1 1.587-1.528Z"/>
  </g>
</svg>
